<svg xmlns="http://www.w3.org/2000/svg" xmlns:xlink="http://www.w3.org/1999/xlink" contentStyleType="text/css" height="1097.4px" preserveAspectRatio="none" style="width:1017px;height:1097px;background:#FFFFFF;" version="1.1" viewBox="0 0 1017 1097" width="1017.6px" zoomAndPan="magnify"><title>Core Implementation Class Diagram</title><defs/><g><text fill="#000000" font-family="sans-serif" font-size="8.4" font-weight="bold" lengthAdjust="spacing" textLength="144.2396" x="434.4302" y="15.0645">Core Implementation Class Diagram</text><!--class Network--><g id="elem_Network"><rect codeLine="5" fill="#F1F1F1" height="285.7711" id="Network" rx="1.5" ry="1.5" style="stroke:#181818;stroke-width:0.3;" width="372.0627" x="64.8" y="30.9727"/><ellipse cx="232.8779" cy="40.5727" fill="#ADD1B2" rx="6.6" ry="6.6" style="stroke:#181818;stroke-width:0.6;"/><path d="M232.4842,44.0883 Q231.2936,44.0883 230.5904,43.207 Q229.8967,42.3164 229.8967,40.4695 Q229.8967,38.9039 230.6279,37.8539 Q231.3686,36.8039 232.6436,36.8039 Q232.9436,36.8039 233.2623,36.8883 Q233.5248,37.0008 233.6842,37.0008 Q233.8154,37.0008 233.8717,36.9727 Q233.9373,36.9445 234.2092,36.5883 L234.6686,38.8289 L234.1342,38.9883 Q233.8623,38.1164 233.4967,37.7602 Q233.1404,37.3945 232.5686,37.3945 Q231.8373,37.3945 231.4061,38.257 Q230.9748,39.1102 230.9748,40.4227 Q230.9748,41.8664 231.3404,42.6445 Q231.7154,43.4133 232.5311,43.4133 Q233.1029,43.4133 233.5154,43.0008 Q233.9279,42.5789 234.1248,41.6789 L234.6686,41.9227 Q234.4248,42.9445 233.8436,43.5164 Q233.2717,44.0883 232.4842,44.0883 Z " fill="#000000"/><text fill="#000000" font-family="sans-serif" font-size="8.4" lengthAdjust="spacing" textLength="30.8068" x="245.1779" y="44.0508">Network</text><line style="stroke:#181818;stroke-width:0.3;" x1="65.4" x2="436.2627" y1="50.1727" y2="50.1727"/><rect fill="none" height="3.6" style="stroke:#C82930;stroke-width:0.6;" width="3.6" x="69.6" y="57.259"/><text fill="#000000" font-family="sans-serif" font-size="8.4" lengthAdjust="spacing" textLength="147.5537" x="76.8" y="61.6371">HashMap&lt;Integer, Person&gt; personMap</text><rect fill="none" height="3.6" style="stroke:#C82930;stroke-width:0.6;" width="3.6" x="69.6" y="68.4316"/><text fill="#000000" font-family="sans-serif" font-size="8.4" lengthAdjust="spacing" textLength="209.6391" x="76.8" y="72.8098">HashMap&lt;Integer, OfficialAccount&gt; officialAccountsMap</text><rect fill="none" height="3.6" style="stroke:#C82930;stroke-width:0.6;" width="3.6" x="69.6" y="79.6043"/><text fill="#000000" font-family="sans-serif" font-size="8.4" lengthAdjust="spacing" textLength="113.4615" x="76.8" y="83.9824">HashSet&lt;Integer&gt; allArticleIds</text><rect fill="none" height="3.6" style="stroke:#C82930;stroke-width:0.6;" width="3.6" x="69.6" y="90.777"/><text fill="#000000" font-family="sans-serif" font-size="8.4" lengthAdjust="spacing" textLength="175.5592" x="76.8" y="95.1551">Map&lt;Integer, Integer&gt; articleToContributorMap</text><rect fill="none" height="3.6" style="stroke:#C82930;stroke-width:0.6;" width="3.6" x="69.6" y="101.9496"/><text fill="#000000" font-family="sans-serif" font-size="8.4" lengthAdjust="spacing" textLength="356.4627" x="76.8" y="106.3277">Map&lt;Integer, Set&lt;TagKey_Internal&gt;&gt; personIdToMemberOfTagsMap ' TagKey is internal detail</text><rect fill="none" height="3.6" style="stroke:#C82930;stroke-width:0.6;" width="3.6" x="69.6" y="113.1223"/><text fill="#000000" font-family="sans-serif" font-size="8.4" lengthAdjust="spacing" textLength="52.7543" x="76.8" y="117.5004">Integer triSum</text><rect fill="none" height="3.6" style="stroke:#C82930;stroke-width:0.6;" width="3.6" x="69.6" y="124.2949"/><text fill="#000000" font-family="sans-serif" font-size="8.4" lengthAdjust="spacing" textLength="156.4172" x="76.8" y="128.673">Map&lt;Integer, Message&gt; allMessagesMap</text><rect fill="none" height="3.6" style="stroke:#C82930;stroke-width:0.6;" width="3.6" x="69.6" y="135.4676"/><text fill="#000000" font-family="sans-serif" font-size="8.4" lengthAdjust="spacing" textLength="156.4213" x="76.8" y="139.8457">Map&lt;Integer, Integer&gt; emojiIdToHeatMap</text><rect fill="none" height="3.6" style="stroke:#C82930;stroke-width:0.6;" width="3.6" x="69.6" y="146.6402"/><text fill="#000000" font-family="sans-serif" font-size="8.4" lengthAdjust="spacing" textLength="192.3756" x="76.8" y="151.0184">Map&lt;Integer, Set&lt;Integer&gt;&gt; emojiToMessagesMap</text><line style="stroke:#181818;stroke-width:0.3;" x1="65.4" x2="436.2627" y1="155.5266" y2="155.5266"/><ellipse cx="71.4" cy="164.4129" fill="#84BE84" rx="1.8" ry="1.8" style="stroke:#038048;stroke-width:0.6;"/><text fill="#000000" font-family="sans-serif" font-size="8.4" lengthAdjust="spacing" textLength="36.4014" x="76.8" y="166.991">Network()</text><ellipse cx="71.4" cy="175.5855" fill="#84BE84" rx="1.8" ry="1.8" style="stroke:#038048;stroke-width:0.6;"/><text fill="#000000" font-family="sans-serif" font-size="8.4" lengthAdjust="spacing" textLength="79.8451" x="76.8" y="178.1637">addPerson(Person p)</text><ellipse cx="71.4" cy="186.7582" fill="#84BE84" rx="1.8" ry="1.8" style="stroke:#038048;stroke-width:0.6;"/><text fill="#000000" font-family="sans-serif" font-size="8.4" lengthAdjust="spacing" textLength="135.8807" x="76.8" y="189.3363">addRelation(int id1, int id2, int value)</text><ellipse cx="71.4" cy="197.9309" fill="#84BE84" rx="1.8" ry="1.8" style="stroke:#038048;stroke-width:0.6;"/><text fill="#000000" font-family="sans-serif" font-size="8.4" lengthAdjust="spacing" textLength="146.6063" x="76.8" y="200.509">modifyRelation(int id1, int id2, int value)</text><ellipse cx="71.4" cy="209.1035" fill="#84BE84" rx="1.8" ry="1.8" style="stroke:#038048;stroke-width:0.6;"/><text fill="#000000" font-family="sans-serif" font-size="8.4" lengthAdjust="spacing" textLength="97.1086" x="76.8" y="211.6816">addMessage(Message m)</text><ellipse cx="71.4" cy="220.2762" fill="#84BE84" rx="1.8" ry="1.8" style="stroke:#038048;stroke-width:0.6;"/><text fill="#000000" font-family="sans-serif" font-size="8.4" lengthAdjust="spacing" textLength="75.6369" x="76.8" y="222.8543">sendMessage(int id)</text><ellipse cx="71.4" cy="231.4488" fill="#84BE84" rx="1.8" ry="1.8" style="stroke:#038048;stroke-width:0.6;"/><text fill="#000000" font-family="sans-serif" font-size="8.4" lengthAdjust="spacing" textLength="70.0219" x="76.8" y="234.027">storeEmojiId(int id)</text><ellipse cx="71.4" cy="242.6215" fill="#84BE84" rx="1.8" ry="1.8" style="stroke:#038048;stroke-width:0.6;"/><text fill="#000000" font-family="sans-serif" font-size="8.4" lengthAdjust="spacing" textLength="92.8963" x="76.8" y="245.1996">deleteColdEmoji(int limit)</text><ellipse cx="71.4" cy="253.7941" fill="#84BE84" rx="1.8" ry="1.8" style="stroke:#038048;stroke-width:0.6;"/><text fill="#000000" font-family="sans-serif" font-size="8.4" lengthAdjust="spacing" textLength="117.1898" x="76.8" y="256.3723">isCircle(int id1, int id2): boolean</text><ellipse cx="71.4" cy="264.9668" fill="#84BE84" rx="1.8" ry="1.8" style="stroke:#038048;stroke-width:0.6;"/><text fill="#000000" font-family="sans-serif" font-size="8.4" lengthAdjust="spacing" textLength="78.4219" x="76.8" y="267.5449">queryTripleSum(): int</text><ellipse cx="71.4" cy="276.1395" fill="#84BE84" rx="1.8" ry="1.8" style="stroke:#038048;stroke-width:0.6;"/><text fill="#000000" font-family="sans-serif" font-size="8.4" lengthAdjust="spacing" textLength="138.2062" x="76.8" y="278.7176">queryShortestPath(int id1, int id2): int</text><ellipse cx="71.4" cy="287.3121" fill="#84BE84" rx="1.8" ry="1.8" style="stroke:#038048;stroke-width:0.6;"/><text fill="#000000" font-family="sans-serif" font-size="8.4" lengthAdjust="spacing" textLength="98.9748" x="76.8" y="289.8902">getMessages(): Message[]</text><ellipse cx="71.4" cy="298.4848" fill="#84BE84" rx="1.8" ry="1.8" style="stroke:#038048;stroke-width:0.6;"/><text fill="#000000" font-family="sans-serif" font-size="8.4" lengthAdjust="spacing" textLength="76.5598" x="76.8" y="301.0629">getEmojiIdList(): int[]</text><ellipse cx="71.4" cy="309.6574" fill="#84BE84" rx="1.8" ry="1.8" style="stroke:#038048;stroke-width:0.6;"/><text fill="#000000" font-family="sans-serif" font-size="8.4" lengthAdjust="spacing" textLength="87.2977" x="76.8" y="312.2355">getEmojiHeatList(): int[]</text></g><!--class Person--><g id="elem_Person"><rect codeLine="34" fill="#F1F1F1" height="229.9078" id="Person" rx="1.5" ry="1.5" style="stroke:#181818;stroke-width:0.3;" width="354.3398" x="59.1" y="558.9727"/><ellipse cx="220.4124" cy="568.5727" fill="#ADD1B2" rx="6.6" ry="6.6" style="stroke:#181818;stroke-width:0.6;"/><path d="M220.0187,572.0883 Q218.828,572.0883 218.1249,571.207 Q217.4312,570.3164 217.4312,568.4695 Q217.4312,566.9039 218.1624,565.8539 Q218.903,564.8039 220.178,564.8039 Q220.478,564.8039 220.7968,564.8883 Q221.0593,565.0008 221.2187,565.0008 Q221.3499,565.0008 221.4062,564.9727 Q221.4718,564.9445 221.7437,564.5883 L222.203,566.8289 L221.6687,566.9883 Q221.3968,566.1164 221.0312,565.7602 Q220.6749,565.3945 220.103,565.3945 Q219.3718,565.3945 218.9405,566.257 Q218.5093,567.1102 218.5093,568.4227 Q218.5093,569.8664 218.8749,570.6445 Q219.2499,571.4133 220.0655,571.4133 Q220.6374,571.4133 221.0499,571.0008 Q221.4624,570.5789 221.6593,569.6789 L222.203,569.9227 Q221.9593,570.9445 221.378,571.5164 Q220.8062,572.0883 220.0187,572.0883 Z " fill="#000000"/><text fill="#000000" font-family="sans-serif" font-size="8.4" lengthAdjust="spacing" textLength="26.615" x="232.7124" y="572.0508">Person</text><line style="stroke:#181818;stroke-width:0.3;" x1="59.7" x2="412.8398" y1="578.1727" y2="578.1727"/><rect fill="none" height="3.6" style="stroke:#C82930;stroke-width:0.6;" width="3.6" x="63.9" y="585.259"/><text fill="#000000" font-family="sans-serif" font-size="8.4" lengthAdjust="spacing" textLength="17.7434" x="71.1" y="589.6371">int id</text><rect fill="none" height="3.6" style="stroke:#C82930;stroke-width:0.6;" width="3.6" x="63.9" y="596.4316"/><text fill="#000000" font-family="sans-serif" font-size="8.4" lengthAdjust="spacing" textLength="45.2895" x="71.1" y="600.8098">String name</text><rect fill="none" height="3.6" style="stroke:#C82930;stroke-width:0.6;" width="3.6" x="63.9" y="607.6043"/><text fill="#000000" font-family="sans-serif" font-size="8.4" lengthAdjust="spacing" textLength="25.2205" x="71.1" y="611.9824">int age</text><rect fill="none" height="3.6" style="stroke:#C82930;stroke-width:0.6;" width="3.6" x="63.9" y="618.777"/><text fill="#000000" font-family="sans-serif" font-size="8.4" lengthAdjust="spacing" textLength="338.7398" x="71.1" y="623.1551">TreeSet&lt;AcquaintanceEntry_Internal&gt; sortedAcquaintances ' AcquaintanceEntry is internal</text><rect fill="none" height="3.6" style="stroke:#C82930;stroke-width:0.6;" width="3.6" x="63.9" y="629.9496"/><text fill="#000000" font-family="sans-serif" font-size="8.4" lengthAdjust="spacing" textLength="265.2316" x="71.1" y="634.3277">Map&lt;Integer, AcquaintanceEntry_Internal&gt; acquaintanceIdToEntryMap</text><rect fill="none" height="3.6" style="stroke:#C82930;stroke-width:0.6;" width="3.6" x="63.9" y="641.1223"/><text fill="#000000" font-family="sans-serif" font-size="8.4" lengthAdjust="spacing" textLength="246.7377" x="71.1" y="645.5004">PersonArticleNode_Internal headReceivedArticle ' Node is internal</text><rect fill="none" height="3.6" style="stroke:#C82930;stroke-width:0.6;" width="3.6" x="63.9" y="652.2949"/><text fill="#000000" font-family="sans-serif" font-size="8.4" lengthAdjust="spacing" textLength="289.5006" x="71.1" y="656.673">Map&lt;Integer, LinkedList&lt;PersonArticleNode_Internal&gt;&gt; articleIdToNodesMap</text><rect fill="none" height="3.6" style="stroke:#C82930;stroke-width:0.6;" width="3.6" x="63.9" y="663.4676"/><text fill="#000000" font-family="sans-serif" font-size="8.4" lengthAdjust="spacing" textLength="109.2656" x="71.1" y="667.8457">HashMap&lt;Integer, Tag&gt; tags</text><rect fill="none" height="3.6" style="stroke:#C82930;stroke-width:0.6;" width="3.6" x="63.9" y="674.6402"/><text fill="#000000" font-family="sans-serif" font-size="8.4" lengthAdjust="spacing" textLength="54.1652" x="71.1" y="679.0184">int socialValue</text><rect fill="none" height="3.6" style="stroke:#C82930;stroke-width:0.6;" width="3.6" x="63.9" y="685.8129"/><text fill="#000000" font-family="sans-serif" font-size="8.4" lengthAdjust="spacing" textLength="36.4178" x="71.1" y="690.191">int money</text><rect fill="none" height="3.6" style="stroke:#C82930;stroke-width:0.6;" width="3.6" x="63.9" y="696.9855"/><text fill="#000000" font-family="sans-serif" font-size="8.4" lengthAdjust="spacing" textLength="135.409" x="71.1" y="701.3637">LinkedList&lt;Message&gt; messagesList</text><line style="stroke:#181818;stroke-width:0.3;" x1="59.7" x2="412.8398" y1="705.8719" y2="705.8719"/><ellipse cx="65.7" cy="714.7582" fill="#84BE84" rx="1.8" ry="1.8" style="stroke:#038048;stroke-width:0.6;"/><text fill="#000000" font-family="sans-serif" font-size="8.4" lengthAdjust="spacing" textLength="129.798" x="71.1" y="717.3363">Person(int id, String name, int age)</text><ellipse cx="65.7" cy="725.9309" fill="#84BE84" rx="1.8" ry="1.8" style="stroke:#038048;stroke-width:0.6;"/><text fill="#000000" font-family="sans-serif" font-size="8.4" lengthAdjust="spacing" textLength="161.1012" x="71.1" y="728.509">addAcquaintance(Person person, int value)</text><ellipse cx="65.7" cy="737.1035" fill="#84BE84" rx="1.8" ry="1.8" style="stroke:#038048;stroke-width:0.6;"/><text fill="#000000" font-family="sans-serif" font-size="8.4" lengthAdjust="spacing" textLength="177.893" x="71.1" y="739.6816">modifyValue(Person person, int newTotalValue)</text><ellipse cx="65.7" cy="748.2762" fill="#84BE84" rx="1.8" ry="1.8" style="stroke:#038048;stroke-width:0.6;"/><text fill="#000000" font-family="sans-serif" font-size="8.4" lengthAdjust="spacing" textLength="107.8588" x="71.1" y="750.8543">queryBestAcquaintance(): int</text><ellipse cx="65.7" cy="759.4488" fill="#84BE84" rx="1.8" ry="1.8" style="stroke:#038048;stroke-width:0.6;"/><text fill="#000000" font-family="sans-serif" font-size="8.4" lengthAdjust="spacing" textLength="118.5844" x="71.1" y="762.027">addReceivedArticle(int articleId)</text><ellipse cx="65.7" cy="770.6215" fill="#84BE84" rx="1.8" ry="1.8" style="stroke:#038048;stroke-width:0.6;"/><text fill="#000000" font-family="sans-serif" font-size="8.4" lengthAdjust="spacing" textLength="132.5789" x="71.1" y="773.1996">removeReceivedArticle(int articleId)</text><ellipse cx="65.7" cy="781.7941" fill="#84BE84" rx="1.8" ry="1.8" style="stroke:#038048;stroke-width:0.6;"/><text fill="#000000" font-family="sans-serif" font-size="8.4" lengthAdjust="spacing" textLength="159.2145" x="71.1" y="784.3723">addReceivedMessage(Message message)</text></g><!--class Tag--><g id="elem_Tag"><rect codeLine="56" fill="#F1F1F1" height="118.1812" id="Tag" rx="1.5" ry="1.5" style="stroke:#181818;stroke-width:0.3;" width="289.2316" x="3.6" y="975.3727"/><ellipse cx="138.4286" cy="984.9727" fill="#ADD1B2" rx="6.6" ry="6.6" style="stroke:#181818;stroke-width:0.6;"/><path d="M138.0349,988.4883 Q136.8442,988.4883 136.1411,987.607 Q135.4474,986.7164 135.4474,984.8695 Q135.4474,983.3039 136.1786,982.2539 Q136.9192,981.2039 138.1942,981.2039 Q138.4942,981.2039 138.813,981.2883 Q139.0755,981.4008 139.2349,981.4008 Q139.3661,981.4008 139.4224,981.3727 Q139.488,981.3445 139.7599,980.9883 L140.2192,983.2289 L139.6849,983.3883 Q139.413,982.5164 139.0474,982.1602 Q138.6911,981.7945 138.1192,981.7945 Q137.388,981.7945 136.9567,982.657 Q136.5255,983.5102 136.5255,984.8227 Q136.5255,986.2664 136.8911,987.0445 Q137.2661,987.8133 138.0817,987.8133 Q138.6536,987.8133 139.0661,987.4008 Q139.4786,986.9789 139.6755,986.0789 L140.2192,986.3227 Q139.9755,987.3445 139.3942,987.9164 Q138.8224,988.4883 138.0349,988.4883 Z " fill="#000000"/><text fill="#000000" font-family="sans-serif" font-size="8.4" lengthAdjust="spacing" textLength="14.4744" x="150.7286" y="988.4508">Tag</text><line style="stroke:#181818;stroke-width:0.3;" x1="4.2" x2="292.2316" y1="994.5727" y2="994.5727"/><rect fill="none" height="3.6" style="stroke:#C82930;stroke-width:0.6;" width="3.6" x="8.4" y="1001.659"/><text fill="#000000" font-family="sans-serif" font-size="8.4" lengthAdjust="spacing" textLength="17.7434" x="15.6" y="1006.0371">int id</text><rect fill="none" height="3.6" style="stroke:#C82930;stroke-width:0.6;" width="3.6" x="8.4" y="1012.8316"/><text fill="#000000" font-family="sans-serif" font-size="8.4" lengthAdjust="spacing" textLength="147.5537" x="15.6" y="1017.2098">HashMap&lt;Integer, Person&gt; personMap</text><rect fill="none" height="3.6" style="stroke:#C82930;stroke-width:0.6;" width="3.6" x="8.4" y="1024.0043"/><text fill="#000000" font-family="sans-serif" font-size="8.4" lengthAdjust="spacing" textLength="77.0479" x="15.6" y="1028.3824">int cachedValueSum</text><line style="stroke:#181818;stroke-width:0.3;" x1="4.2" x2="292.2316" y1="1032.8906" y2="1032.8906"/><ellipse cx="10.2" cy="1041.777" fill="#84BE84" rx="1.8" ry="1.8" style="stroke:#038048;stroke-width:0.6;"/><text fill="#000000" font-family="sans-serif" font-size="8.4" lengthAdjust="spacing" textLength="37.8123" x="15.6" y="1044.3551">Tag(int id)</text><ellipse cx="10.2" cy="1052.9496" fill="#84BE84" rx="1.8" ry="1.8" style="stroke:#038048;stroke-width:0.6;"/><text fill="#000000" font-family="sans-serif" font-size="8.4" lengthAdjust="spacing" textLength="100.8574" x="15.6" y="1055.5277">addPerson(Person person)</text><ellipse cx="10.2" cy="1064.1223" fill="#84BE84" rx="1.8" ry="1.8" style="stroke:#038048;stroke-width:0.6;"/><text fill="#000000" font-family="sans-serif" font-size="8.4" lengthAdjust="spacing" textLength="98.052" x="15.6" y="1066.7004">delPerson(Person person)</text><ellipse cx="10.2" cy="1075.2949" fill="#84BE84" rx="1.8" ry="1.8" style="stroke:#038048;stroke-width:0.6;"/><text fill="#000000" font-family="sans-serif" font-size="8.4" lengthAdjust="spacing" textLength="69.5666" x="15.6" y="1077.873">getValueSum(): int</text><ellipse cx="10.2" cy="1086.4676" fill="#84BE84" rx="1.8" ry="1.8" style="stroke:#038048;stroke-width:0.6;"/><text fill="#000000" font-family="sans-serif" font-size="8.4" lengthAdjust="spacing" textLength="273.6316" x="15.6" y="1089.0457">adjustValueSumForExternalRelationChange(int p1Id, int p2Id, int change)</text></g><!--class OfficialAccount--><g id="elem_OfficialAccount"><rect codeLine="68" fill="#F1F1F1" height="174.0445" id="OfficialAccount" rx="1.5" ry="1.5" style="stroke:#181818;stroke-width:0.3;" width="326.2852" x="87.6" y="350.7727"/><ellipse cx="220.181" cy="360.3727" fill="#ADD1B2" rx="6.6" ry="6.6" style="stroke:#181818;stroke-width:0.6;"/><path d="M219.7872,363.8883 Q218.5966,363.8883 217.8935,363.007 Q217.1997,362.1164 217.1997,360.2695 Q217.1997,358.7039 217.931,357.6539 Q218.6716,356.6039 219.9466,356.6039 Q220.2466,356.6039 220.5653,356.6883 Q220.8278,356.8008 220.9872,356.8008 Q221.1185,356.8008 221.1747,356.7727 Q221.2403,356.7445 221.5122,356.3883 L221.9716,358.6289 L221.4372,358.7883 Q221.1653,357.9164 220.7997,357.5602 Q220.4435,357.1945 219.8716,357.1945 Q219.1403,357.1945 218.7091,358.057 Q218.2778,358.9102 218.2778,360.2227 Q218.2778,361.6664 218.6435,362.4445 Q219.0185,363.2133 219.8341,363.2133 Q220.406,363.2133 220.8185,362.8008 Q221.231,362.3789 221.4278,361.4789 L221.9716,361.7227 Q221.7278,362.7445 221.1466,363.3164 Q220.5747,363.8883 219.7872,363.8883 Z " fill="#000000"/><text fill="#000000" font-family="sans-serif" font-size="8.4" lengthAdjust="spacing" textLength="56.0232" x="232.481" y="363.8508">OfficialAccount</text><line style="stroke:#181818;stroke-width:0.3;" x1="88.2" x2="413.2852" y1="369.9727" y2="369.9727"/><rect fill="none" height="3.6" style="stroke:#C82930;stroke-width:0.6;" width="3.6" x="92.4" y="377.059"/><text fill="#000000" font-family="sans-serif" font-size="8.4" lengthAdjust="spacing" textLength="41.0895" x="99.6" y="381.4371">int ownerId</text><rect fill="none" height="3.6" style="stroke:#C82930;stroke-width:0.6;" width="3.6" x="92.4" y="388.2316"/><text fill="#000000" font-family="sans-serif" font-size="8.4" lengthAdjust="spacing" textLength="17.7434" x="99.6" y="392.6098">int id</text><rect fill="none" height="3.6" style="stroke:#C82930;stroke-width:0.6;" width="3.6" x="92.4" y="399.4043"/><text fill="#000000" font-family="sans-serif" font-size="8.4" lengthAdjust="spacing" textLength="45.2895" x="99.6" y="403.7824">String name</text><rect fill="none" height="3.6" style="stroke:#C82930;stroke-width:0.6;" width="3.6" x="92.4" y="410.577"/><text fill="#000000" font-family="sans-serif" font-size="8.4" lengthAdjust="spacing" textLength="135.4049" x="99.6" y="414.9551">Map&lt;Integer, Person&gt; followersMap</text><rect fill="none" height="3.6" style="stroke:#C82930;stroke-width:0.6;" width="3.6" x="92.4" y="421.7496"/><text fill="#000000" font-family="sans-serif" font-size="8.4" lengthAdjust="spacing" textLength="149.424" x="99.6" y="426.1277">Map&lt;Integer, Integer&gt; contributionsMap</text><rect fill="none" height="3.6" style="stroke:#C82930;stroke-width:0.6;" width="3.6" x="92.4" y="432.9223"/><text fill="#000000" font-family="sans-serif" font-size="8.4" lengthAdjust="spacing" textLength="90.1195" x="99.6" y="437.3004">Set&lt;Integer&gt; articlesSet</text><rect fill="none" height="3.6" style="stroke:#C82930;stroke-width:0.6;" width="3.6" x="92.4" y="444.0949"/><text fill="#000000" font-family="sans-serif" font-size="8.4" lengthAdjust="spacing" textLength="310.6852" x="99.6" y="448.473">TreeSet&lt;ContributorEntry_Internal&gt; sortedContributors ' ContributorEntry is internal</text><rect fill="none" height="3.6" style="stroke:#C82930;stroke-width:0.6;" width="3.6" x="92.4" y="455.2676"/><text fill="#000000" font-family="sans-serif" font-size="8.4" lengthAdjust="spacing" textLength="246.992" x="99.6" y="459.6457">Map&lt;Integer, ContributorEntry_Internal&gt; idToContributorEntryMap</text><line style="stroke:#181818;stroke-width:0.3;" x1="88.2" x2="413.2852" y1="464.1539" y2="464.1539"/><ellipse cx="94.2" cy="473.0402" fill="#84BE84" rx="1.8" ry="1.8" style="stroke:#038048;stroke-width:0.6;"/><text fill="#000000" font-family="sans-serif" font-size="8.4" lengthAdjust="spacing" textLength="175.0752" x="99.6" y="475.6184">OfficialAccount(int id, int ownerId, String name)</text><ellipse cx="94.2" cy="484.2129" fill="#84BE84" rx="1.8" ry="1.8" style="stroke:#038048;stroke-width:0.6;"/><text fill="#000000" font-family="sans-serif" font-size="8.4" lengthAdjust="spacing" textLength="105.9844" x="99.6" y="486.791">addFollower(Person person)</text><ellipse cx="94.2" cy="495.3855" fill="#84BE84" rx="1.8" ry="1.8" style="stroke:#038048;stroke-width:0.6;"/><text fill="#000000" font-family="sans-serif" font-size="8.4" lengthAdjust="spacing" textLength="142.8656" x="99.6" y="497.9637">addArticle(Person person, int articleId)</text><ellipse cx="94.2" cy="506.5582" fill="#84BE84" rx="1.8" ry="1.8" style="stroke:#038048;stroke-width:0.6;"/><text fill="#000000" font-family="sans-serif" font-size="8.4" lengthAdjust="spacing" textLength="129.3387" x="99.6" y="509.1363">decreaseContribution(int personId)</text><ellipse cx="94.2" cy="517.7309" fill="#84BE84" rx="1.8" ry="1.8" style="stroke:#038048;stroke-width:0.6;"/><text fill="#000000" font-family="sans-serif" font-size="8.4" lengthAdjust="spacing" textLength="89.1721" x="99.6" y="520.309">getBestContributor(): int</text></g><!--class Message--><g id="elem_Message"><rect codeLine="85" fill="#F1F1F1" height="118.1812" id="Message" rx="1.5" ry="1.5" style="stroke:#181818;stroke-width:0.3;" width="183.2145" x="296.7" y="822.9727"/><ellipse cx="368.7152" cy="832.5727" fill="#ADD1B2" rx="6.6" ry="6.6" style="stroke:#181818;stroke-width:0.6;"/><path d="M368.3215,836.0883 Q367.1309,836.0883 366.4277,835.207 Q365.734,834.3164 365.734,832.4695 Q365.734,830.9039 366.4652,829.8539 Q367.2059,828.8039 368.4809,828.8039 Q368.7809,828.8039 369.0996,828.8883 Q369.3621,829.0008 369.5215,829.0008 Q369.6527,829.0008 369.709,828.9727 Q369.7746,828.9445 370.0465,828.5883 L370.5059,830.8289 L369.9715,830.9883 Q369.6996,830.1164 369.334,829.7602 Q368.9777,829.3945 368.4059,829.3945 Q367.6746,829.3945 367.2434,830.257 Q366.8121,831.1102 366.8121,832.4227 Q366.8121,833.8664 367.1777,834.6445 Q367.5527,835.4133 368.3684,835.4133 Q368.9402,835.4133 369.3527,835.0008 Q369.7652,834.5789 369.9621,833.6789 L370.5059,833.9227 Q370.2621,834.9445 369.6809,835.5164 Q369.109,836.0883 368.3215,836.0883 Z " fill="#000000"/><text fill="#000000" font-family="sans-serif" font-size="8.4" lengthAdjust="spacing" textLength="34.084" x="381.0152" y="836.0508">Message</text><line style="stroke:#181818;stroke-width:0.3;" x1="297.3" x2="479.3145" y1="842.1727" y2="842.1727"/><rect fill="none" height="3.6" style="stroke:#C82930;stroke-width:0.6;" width="3.6" x="301.5" y="849.259"/><text fill="#000000" font-family="sans-serif" font-size="8.4" lengthAdjust="spacing" textLength="17.7434" x="308.7" y="853.6371">int id</text><rect fill="none" height="3.6" style="stroke:#C82930;stroke-width:0.6;" width="3.6" x="301.5" y="860.4316"/><text fill="#000000" font-family="sans-serif" font-size="8.4" lengthAdjust="spacing" textLength="54.1652" x="308.7" y="864.8098">int socialValue</text><rect fill="none" height="3.6" style="stroke:#C82930;stroke-width:0.6;" width="3.6" x="301.5" y="871.6043"/><text fill="#000000" font-family="sans-serif" font-size="8.4" lengthAdjust="spacing" textLength="27.0826" x="308.7" y="875.9824">int type</text><rect fill="none" height="3.6" style="stroke:#C82930;stroke-width:0.6;" width="3.6" x="301.5" y="882.777"/><text fill="#000000" font-family="sans-serif" font-size="8.4" lengthAdjust="spacing" textLength="59.3045" x="308.7" y="887.1551">Person person1</text><rect fill="none" height="3.6" style="stroke:#C82930;stroke-width:0.6;" width="3.6" x="301.5" y="893.9496"/><text fill="#000000" font-family="sans-serif" font-size="8.4" lengthAdjust="spacing" textLength="59.3045" x="308.7" y="898.3277">Person person2</text><rect fill="none" height="3.6" style="stroke:#C82930;stroke-width:0.6;" width="3.6" x="301.5" y="905.1223"/><text fill="#000000" font-family="sans-serif" font-size="8.4" lengthAdjust="spacing" textLength="28.4854" x="308.7" y="909.5004">Tag tag</text><line style="stroke:#181818;stroke-width:0.3;" x1="297.3" x2="479.3145" y1="914.0086" y2="914.0086"/><ellipse cx="303.3" cy="922.8949" fill="#84BE84" rx="1.8" ry="1.8" style="stroke:#038048;stroke-width:0.6;"/><text fill="#000000" font-family="sans-serif" font-size="8.4" lengthAdjust="spacing" textLength="167.6145" x="308.7" y="925.473">Message(int id, int sv, Person p1, Person p2)</text><ellipse cx="303.3" cy="934.0676" fill="#84BE84" rx="1.8" ry="1.8" style="stroke:#038048;stroke-width:0.6;"/><text fill="#000000" font-family="sans-serif" font-size="8.4" lengthAdjust="spacing" textLength="148.4643" x="308.7" y="936.6457">Message(int id, int sv, Person p1, Tag t)</text></g><!--class EmojiMessage--><g id="elem_EmojiMessage"><rect codeLine="97" fill="#F1F1F1" height="62.318" id="EmojiMessage" rx="1.5" ry="1.5" style="stroke:#181818;stroke-width:0.3;" width="233.6268" x="303.9" y="1003.2727"/><ellipse cx="390.6193" cy="1012.8727" fill="#ADD1B2" rx="6.6" ry="6.6" style="stroke:#181818;stroke-width:0.6;"/><path d="M390.2256,1016.3883 Q389.035,1016.3883 388.3318,1015.507 Q387.6381,1014.6164 387.6381,1012.7695 Q387.6381,1011.2039 388.3693,1010.1539 Q389.11,1009.1039 390.385,1009.1039 Q390.685,1009.1039 391.0037,1009.1883 Q391.2662,1009.3008 391.4256,1009.3008 Q391.5568,1009.3008 391.6131,1009.2727 Q391.6787,1009.2445 391.9506,1008.8883 L392.41,1011.1289 L391.8756,1011.2883 Q391.6037,1010.4164 391.2381,1010.0602 Q390.8818,1009.6945 390.31,1009.6945 Q389.5787,1009.6945 389.1475,1010.557 Q388.7162,1011.4102 388.7162,1012.7227 Q388.7162,1014.1664 389.0818,1014.9445 Q389.4568,1015.7133 390.2725,1015.7133 Q390.8443,1015.7133 391.2568,1015.3008 Q391.6693,1014.8789 391.8662,1013.9789 L392.41,1014.2227 Q392.1662,1015.2445 391.585,1015.8164 Q391.0131,1016.3883 390.2256,1016.3883 Z " fill="#000000"/><text fill="#000000" font-family="sans-serif" font-size="8.4" lengthAdjust="spacing" textLength="55.0881" x="402.9193" y="1016.3508">EmojiMessage</text><line style="stroke:#181818;stroke-width:0.3;" x1="304.5" x2="536.9268" y1="1022.4727" y2="1022.4727"/><rect fill="none" height="3.6" style="stroke:#C82930;stroke-width:0.6;" width="3.6" x="308.7" y="1029.559"/><text fill="#000000" font-family="sans-serif" font-size="8.4" lengthAdjust="spacing" textLength="38.284" x="315.9" y="1033.9371">int emojiId</text><line style="stroke:#181818;stroke-width:0.3;" x1="304.5" x2="536.9268" y1="1038.4453" y2="1038.4453"/><ellipse cx="310.5" cy="1047.3316" fill="#84BE84" rx="1.8" ry="1.8" style="stroke:#038048;stroke-width:0.6;"/><text fill="#000000" font-family="sans-serif" font-size="8.4" lengthAdjust="spacing" textLength="218.0268" x="315.9" y="1049.9098">EmojiMessage(int id, int emojiNum, Person p1, Person p2)</text><ellipse cx="310.5" cy="1058.5043" fill="#84BE84" rx="1.8" ry="1.8" style="stroke:#038048;stroke-width:0.6;"/><text fill="#000000" font-family="sans-serif" font-size="8.4" lengthAdjust="spacing" textLength="198.8766" x="315.9" y="1061.0824">EmojiMessage(int id, int emojiNum, Person p1, Tag t)</text></g><!--class RedEnvelopeMessage--><g id="elem_RedEnvelopeMessage"><rect codeLine="103" fill="#F1F1F1" height="62.318" id="RedEnvelopeMessage" rx="1.5" ry="1.5" style="stroke:#181818;stroke-width:0.3;" width="232.2486" x="548.1" y="1003.2727"/><ellipse cx="619.4139" cy="1012.8727" fill="#ADD1B2" rx="6.6" ry="6.6" style="stroke:#181818;stroke-width:0.6;"/><path d="M619.0201,1016.3883 Q617.8295,1016.3883 617.1264,1015.507 Q616.4326,1014.6164 616.4326,1012.7695 Q616.4326,1011.2039 617.1639,1010.1539 Q617.9045,1009.1039 619.1795,1009.1039 Q619.4795,1009.1039 619.7982,1009.1883 Q620.0607,1009.3008 620.2201,1009.3008 Q620.3514,1009.3008 620.4076,1009.2727 Q620.4732,1009.2445 620.7451,1008.8883 L621.2045,1011.1289 L620.6701,1011.2883 Q620.3982,1010.4164 620.0326,1010.0602 Q619.6764,1009.6945 619.1045,1009.6945 Q618.3732,1009.6945 617.942,1010.557 Q617.5107,1011.4102 617.5107,1012.7227 Q617.5107,1014.1664 617.8764,1014.9445 Q618.2514,1015.7133 619.067,1015.7133 Q619.6389,1015.7133 620.0514,1015.3008 Q620.4639,1014.8789 620.6607,1013.9789 L621.2045,1014.2227 Q620.9607,1015.2445 620.3795,1015.8164 Q619.8076,1016.3883 619.0201,1016.3883 Z " fill="#000000"/><text fill="#000000" font-family="sans-serif" font-size="8.4" lengthAdjust="spacing" textLength="84.5209" x="631.7139" y="1016.3508">RedEnvelopeMessage</text><line style="stroke:#181818;stroke-width:0.3;" x1="548.7" x2="779.7486" y1="1022.4727" y2="1022.4727"/><rect fill="none" height="3.6" style="stroke:#C82930;stroke-width:0.6;" width="3.6" x="552.9" y="1029.559"/><text fill="#000000" font-family="sans-serif" font-size="8.4" lengthAdjust="spacing" textLength="36.4178" x="560.1" y="1033.9371">int money</text><line style="stroke:#181818;stroke-width:0.3;" x1="548.7" x2="779.7486" y1="1038.4453" y2="1038.4453"/><ellipse cx="554.7" cy="1047.3316" fill="#84BE84" rx="1.8" ry="1.8" style="stroke:#038048;stroke-width:0.6;"/><text fill="#000000" font-family="sans-serif" font-size="8.4" lengthAdjust="spacing" textLength="216.6486" x="560.1" y="1049.9098">RedEnvelopeMessage(int id, int m, Person p1, Person p2)</text><ellipse cx="554.7" cy="1058.5043" fill="#84BE84" rx="1.8" ry="1.8" style="stroke:#038048;stroke-width:0.6;"/><text fill="#000000" font-family="sans-serif" font-size="8.4" lengthAdjust="spacing" textLength="197.4984" x="560.1" y="1061.0824">RedEnvelopeMessage(int id, int m, Person p1, Tag t)</text></g><!--class ForwardMessage--><g id="elem_ForwardMessage"><rect codeLine="109" fill="#F1F1F1" height="62.318" id="ForwardMessage" rx="1.5" ry="1.5" style="stroke:#181818;stroke-width:0.3;" width="222.4295" x="791.1" y="1003.2727"/><ellipse cx="867.3193" cy="1012.8727" fill="#ADD1B2" rx="6.6" ry="6.6" style="stroke:#181818;stroke-width:0.6;"/><path d="M866.9256,1016.3883 Q865.735,1016.3883 865.0318,1015.507 Q864.3381,1014.6164 864.3381,1012.7695 Q864.3381,1011.2039 865.0693,1010.1539 Q865.81,1009.1039 867.085,1009.1039 Q867.385,1009.1039 867.7037,1009.1883 Q867.9662,1009.3008 868.1256,1009.3008 Q868.2568,1009.3008 868.3131,1009.2727 Q868.3787,1009.2445 868.6506,1008.8883 L869.11,1011.1289 L868.5756,1011.2883 Q868.3037,1010.4164 867.9381,1010.0602 Q867.5818,1009.6945 867.01,1009.6945 Q866.2787,1009.6945 865.8475,1010.557 Q865.4162,1011.4102 865.4162,1012.7227 Q865.4162,1014.1664 865.7818,1014.9445 Q866.1568,1015.7133 866.9725,1015.7133 Q867.5443,1015.7133 867.9568,1015.3008 Q868.3693,1014.8789 868.5662,1013.9789 L869.11,1014.2227 Q868.8662,1015.2445 868.285,1015.8164 Q867.7131,1016.3883 866.9256,1016.3883 Z " fill="#000000"/><text fill="#000000" font-family="sans-serif" font-size="8.4" lengthAdjust="spacing" textLength="64.8908" x="879.6193" y="1016.3508">ForwardMessage</text><line style="stroke:#181818;stroke-width:0.3;" x1="791.7" x2="1012.9295" y1="1022.4727" y2="1022.4727"/><rect fill="none" height="3.6" style="stroke:#C82930;stroke-width:0.6;" width="3.6" x="795.9" y="1029.559"/><text fill="#000000" font-family="sans-serif" font-size="8.4" lengthAdjust="spacing" textLength="40.6178" x="803.1" y="1033.9371">int articleId</text><line style="stroke:#181818;stroke-width:0.3;" x1="791.7" x2="1012.9295" y1="1038.4453" y2="1038.4453"/><ellipse cx="797.7" cy="1047.3316" fill="#84BE84" rx="1.8" ry="1.8" style="stroke:#038048;stroke-width:0.6;"/><text fill="#000000" font-family="sans-serif" font-size="8.4" lengthAdjust="spacing" textLength="206.8295" x="803.1" y="1049.9098">ForwardMessage(int id, int artId, Person p1, Person p2)</text><ellipse cx="797.7" cy="1058.5043" fill="#84BE84" rx="1.8" ry="1.8" style="stroke:#038048;stroke-width:0.6;"/><text fill="#000000" font-family="sans-serif" font-size="8.4" lengthAdjust="spacing" textLength="187.6793" x="803.1" y="1061.0824">ForwardMessage(int id, int artId, Person p1, Tag t)</text></g><polygon fill="none" points="400.7731,941.3469,399.5159,952.6615,406.5561,951.1529,400.7731,941.3469" style="stroke:#181818;stroke-width:0.6;"/><path d="M403.036,951.9072 C407.5541,972.9918 410.2061,985.3677 414.0121,1003.1292 " fill="none" style="stroke:#181818;stroke-width:0.6;"/><polygon fill="none" points="479.7206,932.81,487.4628,941.1562,490.9221,934.8417,479.7206,932.81" style="stroke:#181818;stroke-width:0.6;"/><path d="M489.1925,937.999 C531.7167,961.2949 571.4361,983.0542 608.3233,1003.2619 " fill="none" style="stroke:#181818;stroke-width:0.6;"/><polygon fill="none" points="479.8249,897.6447,489.8077,903.1169,491.0944,896.0328,479.8249,897.6447" style="stroke:#181818;stroke-width:0.6;"/><path d="M490.4511,899.5748 C572.2426,914.431 683.8987,938.4118 786,975.3727 C806.8411,982.9172 828.7836,993.2583 847.9301,1003.1493 " fill="none" style="stroke:#181818;stroke-width:0.6;"/><polygon fill="none" points="64.6052,311.4716,60.5267,312.9159,60.2913,317.2362,64.3697,315.7919,64.6052,311.4716" style="stroke:#181818;stroke-width:0.6;"/><path d="M60.2913,317.2362 C51.0296,329.6123 47.2356,336.962 40.8,350.7727 C8.136,420.8691 6.4184,455.5025 40.8,524.7727 C46.8184,536.8982 54.3526,548.3002 62.9341,558.9717 " fill="none" style="stroke:#181818;stroke-width:0.6;"/><text fill="#000000" font-family="sans-serif" font-size="7.8" lengthAdjust="spacing" textLength="39.0229" x="42" y="441.0896">personMap</text><text fill="#000000" font-family="sans-serif" font-size="7.8" lengthAdjust="spacing" textLength="14.3051" x="48.5341" y="556.5887">0..N</text><text fill="#000000" font-family="sans-serif" font-size="7.8" lengthAdjust="spacing" textLength="4.338" x="59.8052" y="309.0886">1</text><polygon fill="none" points="250.8,316.7327,248.4,320.3327,250.8,323.9327,253.2,320.3327,250.8,316.7327" style="stroke:#181818;stroke-width:0.6;"/><path d="M250.8,323.9327 C250.8,335.4693 250.8,339.6924 250.8,350.6431 " fill="none" style="stroke:#181818;stroke-width:0.6;"/><text fill="#000000" font-family="sans-serif" font-size="7.8" lengthAdjust="spacing" textLength="69.3659" x="252" y="336.9896">officialAccountsMap</text><text fill="#000000" font-family="sans-serif" font-size="7.8" lengthAdjust="spacing" textLength="14.3051" x="236.4" y="348.26">0..N</text><text fill="#000000" font-family="sans-serif" font-size="7.8" lengthAdjust="spacing" textLength="4.338" x="246" y="325.7497">1</text><polygon fill="none" points="402.1059,316.7692,401.9458,321.0929,405.8754,322.9036,406.0355,318.5799,402.1059,316.7692" style="stroke:#181818;stroke-width:0.6;"/><path d="M405.8754,322.9036 C412.6006,333.8485 414.7089,339.0751 419.4,350.7727 C422.3741,358.1888 422.3367,699.3331 418.8,788.7727 C418.3879,799.1952 419.432,802.0294 417,812.1727 C416.1494,815.7202 415.1404,819.3207 414.0177,822.9202 " fill="none" style="stroke:#181818;stroke-width:0.6;"/><text fill="#000000" font-family="sans-serif" font-size="7.8" lengthAdjust="spacing" textLength="58.5267" x="423" y="545.1896">allMessagesMap</text><text fill="#000000" font-family="sans-serif" font-size="7.8" lengthAdjust="spacing" textLength="14.3051" x="414.6177" y="820.5372">0..N</text><text fill="#000000" font-family="sans-serif" font-size="7.8" lengthAdjust="spacing" textLength="4.338" x="397.3059" y="325.7862">1</text><polygon fill="none" points="198.4237,788.8001,195.1076,791.5792,196.3974,795.7091,199.7136,792.93,198.4237,788.8001" style="stroke:#181818;stroke-width:0.6;"/><path d="M196.3974,795.7091 C193.027,807.2009 191.8459,811.8286 189,822.9727 C175.9889,873.9213 164.9332,932.7254 157.626,975.276 " fill="none" style="stroke:#181818;stroke-width:0.6;"/><text fill="#000000" font-family="sans-serif" font-size="7.8" lengthAdjust="spacing" textLength="14.7431" x="190.2" y="885.3896">tags</text><text fill="#000000" font-family="sans-serif" font-size="7.8" lengthAdjust="spacing" textLength="14.3051" x="143.226" y="972.893">0..N</text><text fill="#000000" font-family="sans-serif" font-size="7.8" lengthAdjust="spacing" textLength="4.338" x="193.6237" y="797.8171">1</text><polygon fill="none" points="248.825,788.8837,247.9811,793.1272,251.5736,795.5384,252.4176,791.2949,248.825,788.8837" style="stroke:#181818;stroke-width:0.6;"/><path d="M251.5736,795.5384 C254.9879,803.8049 256.4419,805.0306 261.6,812.1727 C270.8423,824.9698 283.2028,835.6653 296.5871,844.5186 " fill="none" style="stroke:#181818;stroke-width:0.6;"/><text fill="#000000" font-family="sans-serif" font-size="7.8" lengthAdjust="spacing" textLength="47.6874" x="262.8" y="809.1896">messagesList</text><text fill="#000000" font-family="sans-serif" font-size="7.8" lengthAdjust="spacing" textLength="14.3051" x="282.1871" y="842.1356">0..N</text><text fill="#000000" font-family="sans-serif" font-size="7.8" lengthAdjust="spacing" textLength="4.338" x="244.025" y="797.9007">1</text><polygon fill="none" points="189.926,975.236,193.7918,973.2928,193.4849,968.977,189.6191,970.9202,189.926,975.236" style="stroke:#181818;stroke-width:0.6;"/><path d="M193.4849,968.977 C199.6893,958.0653 201.7808,952.714 205.8,941.1727 C222.6217,892.8679 230.6441,836.9631 234.3203,788.8528 " fill="none" style="stroke:#181818;stroke-width:0.6;"/><text fill="#000000" font-family="sans-serif" font-size="7.8" lengthAdjust="spacing" textLength="39.0229" x="232.2" y="885.3896">personMap</text><text fill="#000000" font-family="sans-serif" font-size="7.8" lengthAdjust="spacing" textLength="14.3051" x="219.9203" y="797.8698">0..N</text><text fill="#000000" font-family="sans-serif" font-size="7.8" lengthAdjust="spacing" textLength="4.338" x="185.126" y="972.853">1</text><polygon fill="none" points="245.4993,524.84,242.8835,528.2864,245.0588,532.0265,247.6745,528.5801,245.4993,524.84" style="stroke:#181818;stroke-width:0.6;"/><path d="M245.0588,532.0265 C244.3771,543.1459 244.1116,547.4777 243.4079,558.9561 " fill="none" style="stroke:#181818;stroke-width:0.6;"/><text fill="#000000" font-family="sans-serif" font-size="7.8" lengthAdjust="spacing" textLength="45.9507" x="246" y="545.1896">followersMap</text><text fill="#000000" font-family="sans-serif" font-size="7.8" lengthAdjust="spacing" textLength="14.3051" x="229.0079" y="556.5731">0..N</text><text fill="#000000" font-family="sans-serif" font-size="7.8" lengthAdjust="spacing" textLength="4.338" x="240.6993" y="533.857">1</text><polygon fill="#181818" points="309.816,788.8194,310.9904,794.6108,311.555,791.264,314.9018,791.8285,309.816,788.8194" style="stroke:#181818;stroke-width:0.6;"/><path d="M335.3741,822.7815 C332.4918,819.2326 329.6807,815.6795 327,812.1727 C321.2648,804.6702 317.5895,799.7473 311.9028,791.7529 " fill="none" style="stroke:#181818;stroke-width:0.6;"/><text fill="#000000" font-family="sans-serif" font-size="7.8" lengthAdjust="spacing" textLength="28.1874" x="328.2" y="809.1896">person1</text><polygon fill="#181818" points="349.8901,788.9316,351.0236,794.7311,351.6118,791.3884,354.9545,791.9765,349.8901,788.9316" style="stroke:#181818;stroke-width:0.6;"/><path d="M369.1862,822.7879 C365.6273,814.7324 361.566,806.7667 357,799.5727 C354.7368,796.0068 354.4264,795.4049 351.9561,791.8797 " fill="none" style="stroke:#181818;stroke-width:0.6;"/><text fill="#000000" font-family="sans-serif" font-size="7.8" lengthAdjust="spacing" textLength="48.5596" x="365.4" y="809.1896">person2 (0..1)</text><polygon fill="#181818" points="241.2281,975.265,247.0763,974.4172,243.7664,973.6659,244.5177,970.3559,241.2281,975.265" style="stroke:#181818;stroke-width:0.6;"/><path d="M296.6103,940.3741 C278.4716,951.8015 262.46,961.8889 244.274,973.346 " fill="none" style="stroke:#181818;stroke-width:0.6;"/><text fill="#000000" font-family="sans-serif" font-size="7.8" lengthAdjust="spacing" textLength="31.2152" x="276.6" y="961.5896">tag (0..1)</text><!--SRC=[dLTRK-Cs57xthr1vIJ8GA3moEvcXANGptMLt8ErBfzCHzi7MObjUIGOoE_tlFRhPakE4K1wmutFHkNsVf9yQGVEAaf9kUAk8h43HcYQ9Oge4ikG2oAfgIgYWLbGnNfDbIQKalpAQ2rebIMf-te9wuUA9_4W8_iq_Kbbyfis7LQqW1t52leAGl5wGnZnHj4Flo-CZInajhzAKjxLQ41v_a97fFIXlkY2qBA-4Oca9gqnQdSXrhsYrrdp9QoNOGwkuwDn69jh_ckQ_m-OV_KtKj5pu75RPcd-6wW74bqVKqO6H2R7QX4d2d079iAAijDwTPuBBthVLo8gVGKgQWyd6lSlnsBfqeEBVc8xc8r2rEm-lxmnqyB7x2Pd_9cXJN9Kv5qmLbIIv_qscTsZr31cXaaXegA0Ao0D_dHbJy-_OpS3KVZkcMMQxFhKFqlI2EoZDC4snIeHbvoV4lbpObsTQjk2qAvwnnyqx3D2zIstgdgHo8Wbr9xFsNe0Z0DUsaB4aWn8KB7cP6R4HbgnYoicPN3A1qxGLsEmIwyDBeBLL_Dw2sAm5GonXwwSeHiL0T5zmeK2ghrGLOyuwxHoKRvtsujx_-hkJkZm-CQdSCaEXdfHjyUJiZ9oUdXAk2XpH9npZfdqeMKgG4mgUIIrC_lM8TqrrWBTnslTxdEuw9pMje1TYYFR7MW3eURnAlxSK9RHEuHfn642CI5sABDIGE9vR5Y7CHgP-tmeqa6di67a77fkROvDRda5dIGgWEBqfC0I3Ky3GjCuRqNnYzHEOfdpOxNxHiPCEIelaRgv4hbaGXTJJLrbopPL_QZJq7ojUmyR-38BecAPomwI_1cXssBMDHGhfcsgd4arwm8Mbxk1k7hi0RM8SKwtXPSsLIs8M0EGN14UqJWWAmobHLqpaNJ6T8s5Ox13DmE4MczZdhCS2Tc8C28VkWjecfMa1cKdQxmms4FGTCz8shvf7prTxf4W0Veb1-RwriXFTS77zQWVIy-woeBKZpUPybTbMDHV-BJNYe2A3VJoi3d-fGQoo0tXZj7QFl2pv2_vuOrjC_UQEqVUwyOd1zbpYnvYRWeF1E3K52fgPXlflKC4UzooBZYKHBTbM3IhR0JGeROJMVcfkNEL69qE3sC5X19H3T6IG2g0Iba6HxN2uir4_RngsGKP-xBf9yQWQmSzEHbER1aAcTikUZtoxS9r5X29L1dMCpm4sJVdivmodl7-zc1riOjO9S62sMvyY8AZgR3HbTuYpwuH6qM96wxQjzaRvFkjXm7UGNTVFKF863WYxtrgEjmsZnVV7_2xZOSX8LozKP0U4susnNJKsZ5P4JOsZFI6_oxWF6K_Pypdnj2eBraWolU5fAmdgNkMvWDo8pfQyQhXaviv5wupyORAXM7BqLO04Oj87ETCkayHVmOxEZmZ7DOv-FZszFV9HN0QRpWxD8MTVZbw-TXZxQbyERowJxcxOOgnaUCNmD5bkJaZD4Ky5ajZmbZ5qSlsQGcEt9KYVyB3wlxpukrfdYtkBs7sxIn9Noa7ckhUNzXmshj2N9ZfgJNnhJ30ZXziuhf4pyS35rh5ow4B4vnwP93hsj-Sb6Kx6BfDeRvvi3PI9Sdkl7Cipt62Jn5TmFbyCuplV9xmWKupmV1RfTFtomly0]--></g></svg>